<svg width="121" height="98" viewBox="0 0 121 98" fill="none" xmlns="http://www.w3.org/2000/svg">
<path d="M72.1844 22.4813C73.0025 22.3508 73.5598 21.5818 73.4293 20.7637C73.2988 19.9456 72.5298 19.3882 71.7117 19.5187L72.1844 22.4813ZM64.0597 78.4923C64.8839 78.576 65.6198 77.9757 65.7035 77.1515L67.0671 63.7206C67.1508 62.8964 66.5505 62.1604 65.7263 62.0767C64.9021 61.993 64.1661 62.5934 64.0825 63.4175L62.8704 75.3562L50.9317 74.1441C50.1076 74.0604 49.3716 74.6607 49.2879 75.4849C49.2042 76.3091 49.8045 77.0451 50.6287 77.1287L64.0597 78.4923ZM71.7117 19.5187C62.539 20.9822 56.271 24.1654 52.3959 28.607C48.5046 33.0671 47.198 38.5984 47.5571 44.3866C48.2685 55.8522 55.5241 68.7228 63.0488 77.9481L65.3736 76.0519C57.9985 67.0101 51.2052 54.7392 50.5513 44.2009C50.2278 38.9871 51.4095 34.3008 54.6564 30.5792C57.9196 26.8391 63.4398 23.8764 72.1844 22.4813L71.7117 19.5187Z" fill="#E15544"/>
</svg>
