<svg width="101" height="95" viewBox="0 0 101 95" fill="none" xmlns="http://www.w3.org/2000/svg">
<path d="M38.2976 18.6221C38.089 17.8204 37.2699 17.3397 36.4682 17.5484C35.6664 17.7571 35.1857 18.5761 35.3944 19.3779L38.2976 18.6221ZM44.4235 26.4634L43.7798 27.8183L43.8779 27.8649L43.9817 27.8969L44.4235 26.4634ZM56.4232 20.8103L56.0342 19.3617V19.3617L56.4232 20.8103ZM56.4232 47.7458L54.9376 47.5387V47.5387L56.4232 47.7458ZM35.3995 75.5426C35.6992 76.3149 36.5682 76.6981 37.3406 76.3984L49.9263 71.5149C50.6987 71.2153 51.0818 70.3462 50.7821 69.5739C50.4825 68.8016 49.6134 68.4184 48.8411 68.7181L37.6538 73.059L33.3129 61.8716C33.0132 61.0993 32.1442 60.7161 31.3719 61.0158C30.5995 61.3155 30.2164 62.1845 30.5161 62.9568L35.3995 75.5426ZM35.3944 19.3779C36.6594 24.2376 40.2727 26.1523 43.7798 27.8183L45.0671 25.1086C41.5742 23.4493 39.1869 22.0386 38.2976 18.6221L35.3944 19.3779ZM43.9817 27.8969C47.6487 29.0271 50.8483 29.5017 53.5749 29.5088L53.5827 26.5088C51.1955 26.5026 48.2922 26.0862 44.8653 25.03L43.9817 27.8969ZM53.5749 29.5088C56.8268 29.5172 59.4333 28.8597 61.3405 27.8278C63.212 26.8153 64.5493 25.3536 64.9102 23.7053C65.095 22.8615 65.0135 21.9822 64.6011 21.1891C64.1908 20.3999 63.5096 19.8039 62.6768 19.4142C61.0509 18.6536 58.7714 18.6265 56.0342 19.3617L56.8123 22.259C59.2233 21.6115 60.6899 21.7968 61.4055 22.1316C61.7434 22.2897 61.8817 22.4621 61.9394 22.573C61.9951 22.6801 62.0302 22.8328 61.9796 23.0636C61.8699 23.5646 61.3294 24.4229 59.913 25.1893C58.5324 25.9362 56.4411 26.5162 53.5827 26.5088L53.5749 29.5088ZM56.0342 19.3617C54.0079 19.9059 52.7314 21.1399 52.1701 22.8905C51.6586 24.4856 51.7864 26.3762 52.0991 28.2551L55.0584 27.7626C54.7603 25.9715 54.7457 24.6831 55.0268 23.8065C55.258 23.0855 55.7092 22.5552 56.8123 22.259L56.0342 19.3617ZM52.0991 28.2551C52.3333 29.6624 52.6959 31.1897 53.0786 32.7523C53.4654 34.3319 53.875 35.9559 54.2282 37.6275C54.936 40.978 55.3801 44.3636 54.9376 47.5387L57.9089 47.9528C58.424 44.2567 57.8934 40.463 57.1634 37.0074C56.7976 35.276 56.3725 33.5903 55.9924 32.0386C55.6083 30.47 55.2718 29.0444 55.0584 27.7626L52.0991 28.2551ZM54.9376 47.5387C54.288 52.1999 51.0549 55.7765 46.9294 59.8712C42.915 63.8557 38.1273 68.2668 35.4254 74.3949L38.1705 75.6052C40.5941 70.1082 44.8903 66.1219 49.0428 62.0005C53.0841 57.9892 57.1008 53.7512 57.9089 47.9528L54.9376 47.5387Z" fill="#E15544"/>
</svg>
