<svg width="19" height="48" viewBox="0 0 19 48" fill="none" xmlns="http://www.w3.org/2000/svg">
<path d="M6.94039 1.98415C7.20751 1.19997 6.78835 0.34772 6.00416 0.0806028C5.21998 -0.186514 4.36774 0.232649 4.10062 1.01683L6.94039 1.98415ZM14.6814 47.9872C15.5025 48.0972 16.2573 47.5208 16.3673 46.6997L18.1599 33.3192C18.2699 32.4981 17.6934 31.7433 16.8723 31.6333C16.0512 31.5233 15.2964 32.0998 15.1864 32.9209L13.5931 44.8146L1.69932 43.2212C0.878232 43.1112 0.123434 43.6877 0.0134346 44.5088C-0.0965645 45.3299 0.47989 46.0847 1.30098 46.1947L14.6814 47.9872ZM4.10062 1.01683C1.34324 9.11173 0.630637 16.692 2.19926 24.3033C3.76423 31.8969 7.57645 39.4079 13.6885 47.4109L16.0727 45.5901C10.1385 37.8199 6.58422 30.7175 5.13751 23.6977C3.69443 16.6956 4.32492 9.66245 6.94039 1.98415L4.10062 1.01683Z" fill="#E15544"/>
</svg>
