<svg width="98" height="101" viewBox="0 0 98 101" fill="none" xmlns="http://www.w3.org/2000/svg">
<path d="M36.9233 68.4535C36.095 68.4673 35.4347 69.15 35.4484 69.9783C35.4622 70.8066 36.1449 71.4669 36.9732 71.4531L36.9233 68.4535ZM55.275 28.5563C54.4777 28.3316 53.6491 28.7958 53.4244 29.5931L49.7621 42.5869C49.5373 43.3842 50.0015 44.2128 50.7989 44.4376C51.5962 44.6623 52.4248 44.1981 52.6496 43.4007L55.9049 31.8507L67.4549 35.1061C68.2523 35.3308 69.0809 34.8666 69.3056 34.0693C69.5303 33.2719 69.0661 32.4433 68.2688 32.2186L55.275 28.5563ZM36.9732 71.4531C46.8973 71.288 55.4795 67.4024 59.6577 59.9624C63.8459 52.5047 63.3139 42.0064 56.1767 29.2669L53.5595 30.7332C60.4223 42.9828 60.5193 52.3016 57.0419 58.4935C53.5546 64.7031 46.1769 68.2996 36.9233 68.4535L36.9732 71.4531Z" fill="#E15544"/>
</svg>
