<svg width="56" height="41" viewBox="0 0 56 41" fill="none" xmlns="http://www.w3.org/2000/svg">
<path d="M55.4557 15.2524C55.2997 15.1221 53.897 14.0543 50.8843 14.0543C50.1049 14.0543 49.2999 14.1323 48.5205 14.2627C47.9496 10.276 44.6504 8.34783 44.521 8.24312L43.7159 7.77393L43.1963 8.52958C42.5474 9.54601 42.0535 10.6928 41.768 11.8653C41.2227 14.1323 41.5606 16.2689 42.7034 18.0933C41.3265 18.8747 39.0931 19.0574 38.6258 19.0831H1.74391C0.782799 19.0831 0.00343642 19.8644 0.00343642 20.8295C-0.0489162 24.0605 0.497329 27.2916 1.61353 30.3409C2.88579 33.6766 4.78234 36.152 7.22316 37.6633C9.97612 39.3574 14.4696 40.3215 19.5339 40.3215C21.8197 40.3215 24.1054 40.113 26.3645 39.6962C29.5066 39.1233 32.5203 38.0288 35.299 36.4395C37.5847 35.1109 39.6364 33.4168 41.3768 31.4363C44.3115 28.1272 46.052 24.427 47.3243 21.1436H47.8439C51.0384 21.1436 53.0129 19.8664 54.1035 18.7719C54.8305 18.0943 55.3757 17.2606 55.7659 16.3222L56 15.6446L55.4548 15.2534L55.4557 15.2524Z" fill="#02F4BF"/>
<path d="M5.19545 18.035H10.1304C10.3645 18.035 10.572 17.8522 10.572 17.5915V13.1543C10.572 12.9192 10.3902 12.7108 10.1304 12.7108H5.19545C4.96134 12.7108 4.75391 12.8936 4.75391 13.1543V17.5915C4.77959 17.8522 4.96134 18.035 5.19545 18.035ZM11.9993 18.035H16.9343C17.1684 18.035 17.3758 17.8522 17.3758 17.5915V13.1543C17.3758 12.9192 17.1941 12.7108 16.9343 12.7108H11.9993C11.7652 12.7108 11.5578 12.8936 11.5578 13.1543V17.5915C11.5835 17.8522 11.7652 18.035 11.9993 18.035ZM18.9346 18.035H23.8695C24.1036 18.035 24.3111 17.8522 24.3111 17.5915V13.1543C24.3111 12.9192 24.1293 12.7108 23.8695 12.7108H18.9346C18.7004 12.7108 18.493 12.8936 18.493 13.1543V17.5915C18.493 17.8522 18.6748 18.035 18.9346 18.035ZM25.7651 18.035H30.7001C30.9342 18.035 31.1416 17.8522 31.1416 17.5915V13.1543C31.1416 12.9192 30.9599 12.7108 30.7001 12.7108H25.7651C25.531 12.7108 25.3235 12.8936 25.3235 13.1543V17.5915C25.3235 17.8522 25.531 18.035 25.7651 18.035ZM11.9993 11.6934H16.9343C17.1684 11.6934 17.3758 11.485 17.3758 11.2499V6.81276C17.3758 6.57766 17.1941 6.36924 16.9343 6.36924H11.9993C11.7652 6.36924 11.5578 6.55198 11.5578 6.81276V11.2499C11.5835 11.485 11.7652 11.6934 11.9993 11.6934ZM18.9346 11.6934H23.8695C24.1036 11.6934 24.3111 11.485 24.3111 11.2499V6.81276C24.3111 6.57766 24.1293 6.36924 23.8695 6.36924H18.9346C18.7004 6.36924 18.493 6.55198 18.493 6.81276V11.2499C18.493 11.485 18.6748 11.6934 18.9346 11.6934ZM25.7651 11.6934H30.7001C30.9342 11.6934 31.1416 11.485 31.1416 11.2499V6.81276C31.1416 6.57766 30.9342 6.36924 30.7001 6.36924H25.7651C25.531 6.36924 25.3235 6.55198 25.3235 6.81276V11.2499C25.3235 11.485 25.531 11.6934 25.7651 11.6934ZM25.7651 5.32416H30.7001C30.9342 5.32416 31.1416 5.14142 31.1416 4.88065V0.443516C31.1416 0.208423 30.9342 0 30.7001 0H25.7651C25.531 0 25.3235 0.18274 25.3235 0.443516V4.88065C25.3235 5.11574 25.531 5.32416 25.7651 5.32416ZM32.647 18.035H37.582C37.8161 18.035 38.0235 17.8522 38.0235 17.5915V13.1543C38.0235 12.9192 37.8418 12.7108 37.582 12.7108H32.647C32.4129 12.7108 32.2055 12.8936 32.2055 13.1543V17.5915C32.2311 17.8522 32.4129 18.035 32.647 18.035Z" fill="#02F4BF"/>
</svg>
