<svg width="56" height="56" viewBox="0 0 56 56" fill="none" xmlns="http://www.w3.org/2000/svg">
<path d="M49.3548 18.2926C49.4032 16.0951 47.9884 13.8392 46.3926 12.0025C46.2803 11.8743 46.1664 11.7477 46.0541 11.6228C45.608 11.1323 45.1541 10.6767 44.722 10.2686C43.2931 8.91594 42.0905 8.0569 42.0905 8.0569C34.0149 1.98038 26.4136 2.02942 21.734 2.97863C21.5998 3.00711 21.4673 3.034 21.3378 3.06248C21.1428 3.10677 20.9541 3.15107 20.7715 3.19537C20.7107 3.21119 20.6499 3.22701 20.5906 3.24124C20.5298 3.25706 20.4705 3.27288 20.4128 3.28871C19.8871 3.42792 19.4129 3.57347 18.9995 3.71427C18.9137 3.74433 18.8311 3.7728 18.7499 3.80128C18.7 3.81868 18.6517 3.83608 18.6033 3.85349C18.53 3.88038 18.4598 3.90727 18.3912 3.93259C18.3537 3.94682 18.3163 3.96106 18.2804 3.9753C18.2695 3.97846 18.2601 3.98163 18.2492 3.98637C18.1899 4.00852 18.1338 4.03067 18.0792 4.05282C18.0293 4.0718 17.9809 4.09079 17.9357 4.10977C17.9029 4.12401 17.8717 4.13667 17.8405 4.14932C17.7922 4.16989 17.7469 4.18887 17.7033 4.20786C17.5925 4.25374 17.4958 4.29803 17.41 4.336C17.2369 4.4151 17.1152 4.47522 17.0481 4.50844C17.0325 4.51635 17.0185 4.52426 17.0091 4.52901C17.0091 4.52901 17.006 4.53059 17.0044 4.53217C16.9951 4.53533 16.9904 4.5385 16.9873 4.54008C16.9857 4.54166 16.9842 4.54166 16.9842 4.54166C6.67177 9.17697 3.62532 19.3224 3.62532 19.3224C3.13864 20.9124 2.69719 22.4801 2.41017 24.1144C2.38209 24.2836 2.35558 24.4529 2.33062 24.6222C1.77062 28.3874 2.11691 32.0339 3.21663 35.5017C3.43033 36.1836 3.67524 36.8575 3.94821 37.5235C3.91078 37.3622 3.8671 37.1708 3.8671 37.1708C3.8671 37.1708 2.94053 32.6462 3.80159 28.302C3.80159 28.302 4.55189 23.779 7.5999 20.2843C7.5999 20.2843 12.5447 13.1415 21.7527 15.9401C21.7527 15.9401 23.74 16.6567 24.4248 17.0159C25.1096 17.3513 26.3013 17.867 26.3013 17.867C32.8154 21.069 38.3358 22.0767 38.3358 22.0767C50.0178 24.0701 49.3548 18.2926 49.3548 18.2926ZM27.6257 9.47755L19.5002 6.91469C19.4566 6.91469 19.2366 6.80395 18.8389 6.91469C18.8389 6.91469 14.401 8.0569 15.1731 10.5217C15.1731 10.5217 15.6364 12.0657 16.8952 13.5671L25.8458 13.2111L25.7366 13.4405C25.6368 13.6477 25.434 13.7838 25.2063 13.7949L16.9249 14.1983C16.9155 14.1999 16.9046 14.1999 16.8952 14.1999C16.7127 14.1999 16.5396 14.1176 16.4195 13.9768C15.0936 12.3948 14.596 10.7732 14.5757 10.7052C14.3713 10.055 14.4369 9.38896 14.7644 8.79096C15.6816 7.11719 18.3802 6.37997 18.6844 6.30245C18.8435 6.25657 19.0136 6.23284 19.1773 6.23284C19.3864 6.23284 19.5361 6.27239 19.6126 6.29295C19.6375 6.2977 19.6625 6.30403 19.6859 6.31036L27.2154 8.68496C27.3901 8.74033 27.5305 8.86848 27.6038 9.03775C27.6631 9.17697 27.6709 9.33359 27.6257 9.47755ZM35.7745 12.6701C35.7667 13.325 35.2426 13.855 34.5921 13.8582H34.5827C33.9291 13.8597 33.3988 13.3298 33.3894 12.6701V12.6479C33.3879 11.9835 33.9167 11.4424 34.5734 11.4393H34.5827C35.2379 11.4361 35.7714 11.9724 35.7745 12.6384V12.6701Z" fill="#02F4BF"/>
<path d="M2.26998 34.4812C1.73962 33.8468 1.24514 33.1823 0.82085 32.4673C0.488595 31.8629 0.136062 31.2127 0.0253104 30.5198C-0.0854412 29.8253 0.179739 29.153 0.577509 28.5929C0.864527 28.1674 1.21862 27.832 1.39489 27.3162C1.4214 27.245 1.4448 27.1738 1.46508 27.1011C1.35745 29.5817 1.62575 32.048 2.26998 34.4812Z" fill="#02F4BF"/>
<path d="M3.22755 35.5127C3.22755 35.5127 3.21975 35.5063 3.21663 35.5016C2.11691 32.0338 1.77062 28.3873 2.33062 24.6221C1.77686 28.3841 2.12939 32.0417 3.22755 35.5127Z" fill="#02F4BF"/>
<path d="M17.4102 4.33591C17.4959 4.29794 17.5927 4.25364 17.7034 4.20776C17.5942 4.25364 17.4959 4.29794 17.4102 4.33591Z" fill="#02F4BF"/>
<path d="M25.2324 1.90431C20.2985 2.14636 17.0337 3.80273 16.7124 3.97201C11.259 6.4273 7.83352 10.4092 5.91799 13.3186C3.84022 16.4763 3.06028 19.0312 3.02909 19.1341C2.56736 20.6417 2.0994 22.2744 1.79522 24.0067C1.70319 24.5477 1.62987 25.0872 1.57528 25.6267C1.34753 23.3043 -0.59296 20.9233 0.687703 18.6278C1.12915 17.8669 1.72503 17.1502 2.43165 16.6123C4.11008 15.2913 4.86039 14.619 4.97114 12.246C5.01482 11.4391 4.99298 10.6101 5.08189 9.8049C5.1708 8.77343 5.5015 7.87801 6.31888 7.20723C7.06918 6.60132 8.01915 6.26593 8.94572 6.10931C9.85045 5.95269 10.7349 6.01914 11.6178 5.68375C12.6333 5.30248 13.5162 4.63171 14.2446 3.82488C14.8857 3.10823 15.4598 2.32513 16.1446 1.60847C18.4189 -0.788282 22.172 -0.228248 24.6896 1.474C24.8518 1.58316 25.0468 1.74294 25.2324 1.90431Z" fill="#02F4BF"/>
<path d="M1.5756 25.6267C1.52256 26.1187 1.48668 26.6107 1.46484 27.1011C1.58339 26.6977 1.61147 26.2801 1.59275 25.8608C1.58963 25.7833 1.58339 25.7042 1.5756 25.6267Z" fill="#02F4BF"/>
<path d="M55.3826 39.0739C55.3826 39.0739 53.6387 46.0617 44.9611 52.1081C44.9611 52.1081 35.5331 59.0943 21.7313 54.3467C21.7313 54.3467 12.4126 51.3456 6.67219 42.6572C6.40077 42.2458 6.14027 41.8298 5.89069 41.4105C5.80334 41.072 5.66763 40.7461 5.5288 40.4265C3.94864 36.7879 3.64602 32.3013 4.41348 28.4269C4.41504 28.4206 4.4166 28.4143 4.4166 28.4063C4.4244 28.3636 5.17159 24.0242 8.06829 20.7035C8.08233 20.6861 8.09793 20.6671 8.1104 20.6481C8.14316 20.6023 11.4766 15.9227 17.5742 15.9227C18.8627 15.9227 20.2026 16.1315 21.5597 16.5412C22.1135 16.7421 23.6125 17.3022 24.1382 17.5774C24.1444 17.5806 24.1491 17.5838 24.1538 17.5854C24.5172 17.7641 25.0117 17.9872 25.4064 18.1628C23.2241 18.8225 17.9252 20.9598 15.8802 26.5332C13.2752 33.6317 16.8738 39.857 16.8738 39.857C16.8738 39.857 19.3244 44.7169 24.6686 46.9571C24.6686 46.9571 20.407 43.1049 20.5177 38.9616L20.5395 38.9837C20.694 39.2084 21.4895 40.0595 21.4895 40.0595C22.3724 41.0229 23.3208 41.9183 24.3145 42.7473C29.5931 47.2023 36.0183 49.5104 42.863 47.8746C42.863 47.8746 37.6296 48.21 34.1417 44.2471C34.1417 44.2471 42.4372 44.6505 50.0978 36.2595C49.8903 36.4477 46.0311 39.8744 40.8321 38.8951C40.8321 38.8951 45.624 36.3196 49.0027 29.1088C49.0027 29.1088 53.021 21.1354 49.9964 14.5969C49.9964 14.5969 57.3933 21.5388 49.9527 33.0258C50.0369 32.9689 52.7589 31.0863 55.7367 24.5177C55.7367 24.5177 57.3481 31.4375 52.6014 37.9997C52.6014 37.9997 50.4378 41.8741 45.3588 44.1126C45.3588 44.1126 48.3834 44.6283 55.3826 39.0739Z" fill="#02F4BF"/>
</svg>
