<svg width="56" height="46" viewBox="0 0 56 46" fill="none" xmlns="http://www.w3.org/2000/svg">
<g clip-path="url(#clip0_3418_3160)">
<path d="M40.722 4.20908L33.7193 11.2819C31.6808 10.1656 29.3537 9.65323 27.0105 9.83389C24.7617 10.0065 22.6207 10.8073 20.8195 12.1205C19.1827 11.6378 17.4786 11.3897 15.7798 11.3897H15.7097C12.9377 11.4059 10.2547 12.0531 7.81445 13.28C8.86068 10.8343 10.3464 8.59891 12.1989 6.67634C14.7956 3.98797 18.0259 2.00878 21.5879 0.930193C25.15 -0.148389 28.9277 -0.291302 32.5598 0.512242C35.5125 1.16478 38.2871 2.42673 40.722 4.20908Z" fill="#02F4BF"/>
<path d="M55.2906 34.2693C54.2822 37.5455 52.2571 40.4037 49.5148 42.4261C46.7725 44.4484 43.4586 45.527 40.0637 45.5H30.041V35.6714H40.0637C40.8619 35.6714 41.652 35.5123 42.3908 35.2023C43.1269 34.8949 43.7983 34.4419 44.3619 33.8729C44.9255 33.3039 45.3758 32.6271 45.6805 31.8802C45.9852 31.136 46.1443 30.3378 46.1443 29.5316C46.1443 28.7254 45.9852 27.9272 45.6805 27.183C45.3758 26.4388 44.9255 25.762 44.3619 25.1903C43.7983 24.6214 43.1269 24.1684 42.3908 23.861C41.652 23.5509 40.8619 23.3918 40.0637 23.3918V22.1676C40.0961 20.3124 39.7132 18.4734 38.942 16.7882C38.6023 16.0439 38.1897 15.3402 37.7124 14.6849C37.1354 13.8895 36.4586 13.1641 35.7036 12.5278C35.6712 12.5008 35.6362 12.4711 35.6038 12.4442L42.3396 5.6437L42.4366 5.54663C43.1 6.13985 43.7228 6.77082 44.3053 7.43685C46.5325 9.97691 48.1585 13.0077 49.0456 16.3055C51.8607 18.2254 53.9855 21.0108 55.11 24.2466C56.2344 27.4823 56.2964 30.9958 55.2906 34.2693Z" fill="#02F4BF"/>
<path d="M28.3286 19.8054L21.2747 26.9267C20.8675 26.0234 20.2527 25.2307 19.4762 24.6186C18.7023 24.0065 17.7909 23.5939 16.8255 23.416C15.8575 23.238 14.8598 23.3 13.9215 23.5966C12.9831 23.8905 12.1283 24.4136 11.4326 25.1147C10.7369 25.8158 10.2219 26.6787 9.928 27.6278C9.63409 28.5743 9.57477 29.5801 9.75004 30.5589C9.92801 31.535 10.3352 32.4545 10.9419 33.2365C10.9985 33.3066 11.0551 33.3794 11.1144 33.4468C11.6942 34.1317 12.4141 34.6791 13.2285 35.0512H13.2258L6.19072 42.1563L6.17454 42.1725C5.53009 41.671 4.92608 41.1209 4.37061 40.5304C2.67454 38.7345 1.4072 36.5558 0.684553 34.1586C-0.272688 30.9768 -0.224152 27.5712 0.827466 24.419C1.46653 22.5019 2.45882 20.7357 3.74233 19.2068C4.56206 18.2226 5.50582 17.3408 6.55204 16.575C6.7327 16.4429 6.91606 16.3135 7.10212 16.1895H7.10482C9.65836 14.4853 12.6514 13.5658 15.7227 13.5469C16.7608 13.5442 17.7936 13.644 18.8074 13.8435H18.8101C19.6433 14.008 20.4631 14.2399 21.2612 14.5392C21.7681 14.728 22.267 14.9437 22.7523 15.1837C24.9392 16.2703 26.8483 17.8532 28.3286 19.8054Z" fill="#02F4BF"/>
<path d="M27.884 35.6013V45.4299H15.723C12.9996 45.4434 10.3355 44.7423 7.98145 43.413L15.7203 35.6013H27.884Z" fill="#02F4BF"/>
</g>
<defs>
<clipPath id="clip0_3418_3160">
<rect width="56" height="45.5" fill="white"/>
</clipPath>
</defs>
</svg>
