<svg width="38" height="68" viewBox="0 0 38 68" fill="none" xmlns="http://www.w3.org/2000/svg">
<path d="M17.5858 11.4303L10.7079 18.3291C10.3172 18.721 9.68233 18.721 9.29156 18.3291L8.70388 17.7396C8.31479 17.3493 8.31479 16.7178 8.70388 16.3276L18.2918 6.71035C18.6826 6.31839 19.3174 6.31839 19.7082 6.71035L29.2961 16.3276C29.6852 16.7178 29.6852 17.3493 29.2961 17.7396L28.7084 18.3291C28.3177 18.721 27.6828 18.721 27.2921 18.3291L20.4142 11.4303L20.4142 60C20.4142 60.5523 19.9665 61 19.4142 61H18.5858C18.0335 61 17.5858 60.5523 17.5858 60L17.5858 11.4303Z" fill="#02F4BF"/>
<rect x="0.5" y="0.5" width="37" height="67" stroke="#02F4BF"/>
</svg>
