<svg width="38" height="68" viewBox="0 0 38 68" fill="none" xmlns="http://www.w3.org/2000/svg">
<rect x="0.5" y="0.5" width="37" height="67" stroke="#02F4BF"/>
<path d="M20.4142 55.5697L27.2921 48.6709C27.6828 48.279 28.3177 48.279 28.7084 48.6709L29.2961 49.2604C29.6852 49.6507 29.6852 50.2822 29.2961 50.6724L19.7082 60.2897C19.3174 60.6816 18.6826 60.6816 18.2918 60.2897L8.70388 50.6724C8.31479 50.2822 8.31479 49.6507 8.70388 49.2604L9.29156 48.6709C9.68233 48.279 10.3172 48.279 10.7079 48.6709L17.5858 55.5697L17.5858 7C17.5858 6.44772 18.0335 6 18.5858 6L19.4142 6C19.9665 6 20.4142 6.44772 20.4142 7L20.4142 55.5697Z" fill="#02F4BF"/>
</svg>
